<?xml version="1.0" encoding="UTF-8"?>
<svg width="100px" height="100px" viewBox="0 0 100 100" version="1.1" xmlns="http://www.w3.org/2000/svg" xmlns:xlink="http://www.w3.org/1999/xlink">
    <!-- Generator: Sketch 55.2 (78181) - https://sketchapp.com -->
    <title>Artboard</title>
    <desc>Created with Sketch.</desc>
    <g id="Artboard" stroke="none" stroke-width="1" fill="none" fill-rule="evenodd">
        <path d="M55.9535895,36.2132452 L55.9535895,29.3201656 C55.9535895,28.2852206 55.9996164,27.4838383 56.0933964,26.9178062 C56.186601,26.3505824 56.3983251,25.7928918 56.7268427,25.2423511 C57.0547849,24.6924062 57.5863965,24.312271 58.3205268,24.1019454 C59.0552324,23.8910239 60.032155,23.786159 61.2512945,23.786159 L67.9067954,23.786159 L67.9067954,10 L57.266509,10 C51.1092501,10 46.6877837,11.5127953 44.0003836,14.5383859 C41.3129834,17.5645723 39.9695711,22.0219263 39.9695711,27.9122352 L39.9695711,36.2132452 L32,36.2132452 L32,50 L39.9689957,50 L39.9689957,90 L55.9535895,90 L55.9535895,50 L66.5938759,50 L68,36.2132452 L55.9535895,36.2132452 L55.9535895,36.2132452 Z" id="Shape-Copy-2" fill="#008BD1"></path>
    </g>
</svg>