<?xml version="1.0" encoding="UTF-8"?>
<svg width="100px" height="100px" viewBox="0 0 100 100" version="1.1" xmlns="http://www.w3.org/2000/svg" xmlns:xlink="http://www.w3.org/1999/xlink">
    <!-- Generator: Sketch 55.2 (78181) - https://sketchapp.com -->
    <title>Artboard</title>
    <desc>Created with Sketch.</desc>
    <g id="Artboard" stroke="none" stroke-width="1" fill="none" fill-rule="evenodd">
        <path d="M76,29 C76,31.7612595 73.761483,34 70.9999087,34 C68.2388823,34 66,31.7612595 66,29 C66,26.2383753 68.2388823,24 70.9999087,24 C73.761483,24 76,26.2383753 76,29 M49.5000888,63 C42.0441243,63 36,56.9558757 36,49.5000888 C36,42.0441243 42.0441243,36 49.5000888,36 C56.9560532,36 63,42.0441243 63,49.5000888 C63,56.9558757 56.9560532,63 49.5000888,63 M49.5000875,29 C38.1783445,29 29,38.1783836 29,49.500175 C29,60.8221413 38.1783445,70 49.5000875,70 C60.8218305,70 70,60.8221413 70,49.500175 C70,38.1783836 60.8218305,29 49.5000875,29 M50,10 C39.1366228,10 37.7742955,10.0459367 33.5079491,10.2407294 C29.250194,10.4351714 26.3426683,11.1112475 23.7984299,12.100114 C21.1679283,13.122118 18.9373584,14.4898746 16.7136263,16.7135969 C14.4898943,18.9373192 13.1219564,21.16823 12.0999478,23.7985448 C11.1109017,26.3429473 10.4348226,29.2506356 10.2405551,33.5081967 C10.0457616,37.7746997 10,39.1364951 10,49.9998247 C10,60.8635049 10.0457616,62.2254756 10.2405551,66.4918033 C10.4348226,70.7495398 11.1109017,73.6570527 12.0999478,76.2016306 C13.1219564,78.83177 14.4898943,81.0626808 16.7136263,83.2864031 C18.9373584,85.5101254 21.1679283,86.877882 23.7984299,87.899886 C26.3426683,88.8887525 29.250194,89.5648286 33.5079491,89.759446 C37.7742955,89.953888 39.1366228,90 50,90 C60.8633772,90 62.2255292,89.953888 66.4918756,89.759446 C70.7496307,89.5648286 73.6571564,88.8887525 76.2013948,87.899886 C78.8318963,86.877882 81.0626416,85.5101254 83.2863737,83.2864031 C85.5101057,81.0626808 86.8778683,78.83177 87.9000522,76.2016306 C88.888923,73.6570527 89.5651774,70.7495398 89.7592696,66.4918033 C89.9540631,62.2254756 90,60.8635049 90,49.9998247 C90,39.1364951 89.9540631,37.7746997 89.7592696,33.5081967 C89.5651774,29.2506356 88.888923,26.3429473 87.9000522,23.7985448 C86.8778683,21.16823 85.5101057,18.9373192 83.2863737,16.7135969 C81.0626416,14.4898746 78.8318963,13.122118 76.2013948,12.100114 C73.6571564,11.1112475 70.7496307,10.4351714 66.4918756,10.2407294 C62.2255292,10.0459367 60.8633772,10 50,10 M50,17 C60.7479282,17 62.0207556,17.0411102 66.2655132,17.2348397 C70.1898585,17.4137483 72.3212357,18.0697467 73.7398013,18.6209406 C75.618695,19.3510431 76.9596277,20.2235316 78.3681363,21.6318637 C79.7768213,23.0405488 80.6491333,24.381305 81.3790594,26.2601987 C81.9302533,27.6785879 82.5860753,29.8101415 82.7653368,33.7344868 C82.9587134,37.9792444 83,39.2520718 83,50 C83,60.7482811 82.9587134,62.0211085 82.7653368,66.2655132 C82.5860753,70.1903878 81.9302533,72.321765 81.3790594,73.7401542 C80.6491333,75.618695 79.7768213,76.9598041 78.3681363,78.3684892 C76.9596277,79.7769978 75.618695,80.6493098 73.7398013,81.3795887 C72.3212357,81.9306062 70.1898585,82.5866046 66.2655132,82.7653368 C62.0212849,82.9592427 60.7486339,83 50,83 C39.2511896,83 37.9785387,82.9592427 33.7344868,82.7653368 C29.809965,82.5866046 27.6785879,81.9306062 26.2601987,81.3795887 C24.3811286,80.6493098 23.0401959,79.7769978 21.6318637,78.3684892 C20.2233551,76.9598041 19.3510431,75.618695 18.6207641,73.7401542 C18.0695702,72.321765 17.4137483,70.1903878 17.2346632,66.2655132 C17.0411102,62.0211085 17,60.7482811 17,50 C17,39.2520718 17.0411102,37.9792444 17.2346632,33.7344868 C17.4137483,29.8101415 18.0695702,27.6785879 18.6207641,26.2601987 C19.3510431,24.381305 20.2233551,23.0405488 21.6318637,21.6318637 C23.0401959,20.2235316 24.3811286,19.3510431 26.2601987,18.6209406 C27.6785879,18.0697467 29.809965,17.4137483 33.7344868,17.2348397 C37.9792444,17.0411102 39.2520718,17 50,17" id="Fill-1-Copy-3" fill="#008BD1"></path>
    </g>
</svg>