<?xml version="1.0" encoding="UTF-8"?>
<svg width="100px" height="100px" viewBox="0 0 100 100" version="1.1" xmlns="http://www.w3.org/2000/svg" xmlns:xlink="http://www.w3.org/1999/xlink">
    <!-- Generator: Sketch 55.2 (78181) - https://sketchapp.com -->
    <title>Artboard</title>
    <desc>Created with Sketch.</desc>
    <g id="Artboard" stroke="none" stroke-width="1" fill="none" fill-rule="evenodd">
        <path d="M11,36 L28,36 L28,87 L11,87 L11,36 Z M84.5150094,40.8211398 C88.171454,44.7004309 89.9987055,50.3837215 90,57.8716409 L90,86.9987411 L72.6498498,86.9987411 L72.6498498,59.8191546 C72.6498498,56.2294098 71.9378496,53.4170338 70.5144965,51.3832857 C69.0904961,49.3489081 66.8664664,48.3317194 63.8430546,48.3317194 C61.6280868,48.3317194 59.7736499,48.9215126 58.2790967,50.1017286 C56.7838963,51.2806856 55.6692924,52.7416356 54.9301067,54.4858374 C54.5430375,55.5124679 54.3501502,56.8966252 54.3501502,58.6401975 L54.3501502,87 L37.0006473,87 C37.0712,73.358592 37.1061528,62.2991817 37.1061528,53.8198809 C37.1061528,45.3412095 37.0886764,40.2817024 37.0530764,38.6401007 L37,36.1783276 L54.3501502,36.1783276 L54.3501502,43.4050259 C55.0200777,42.3783954 55.7055397,41.4713601 56.4071835,40.6921028 C57.1450746,39.8719314 58.1386385,38.9831501 59.3865807,38.025759 C60.6351701,37.0683678 62.1640287,36.3249891 63.974451,35.7949935 C65.7855206,35.2649978 67.7985394,35 70.0135072,35 C76.0247307,35 80.8598593,36.9405897 84.5150094,40.8211398 Z M19.5508821,12 C22.392071,12 24.6691818,12.8035387 26.3803238,14.4112264 C28.0914657,16.0183038 28.964999,18.04759 28.9990327,20.5003051 C29.0330665,22.9194631 28.1689871,24.9408176 26.4061642,26.5643685 C24.6433414,28.1885296 22.3240035,29 19.4481506,29 L19.3454191,29 C16.5382639,29 14.2788002,28.1879195 12.5676583,26.5643685 C10.8558861,24.9408176 10,22.918853 10,20.5003051 C10,18.04759 10.8810963,16.0183038 12.6445494,14.4112264 C14.4080025,12.8041489 16.7096932,12 19.5508821,12 Z" id="Combined-Shape-Copy-2" fill="#008BD1"></path>
    </g>
</svg>