<?xml version="1.0" encoding="UTF-8"?>
<svg width="100px" height="100px" viewBox="0 0 100 100" version="1.1" xmlns="http://www.w3.org/2000/svg" xmlns:xlink="http://www.w3.org/1999/xlink">
    <!-- Generator: Sketch 55.2 (78181) - https://sketchapp.com -->
    <title>Artboard</title>
    <desc>Created with Sketch.</desc>
    <g id="Artboard" stroke="none" stroke-width="1" fill="none" fill-rule="evenodd">
        <path d="M51.8767206,10 C30.0202628,10 19,25.6528328 19,38.7058605 C19,46.6087796 21.9952872,53.639954 28.4202877,56.2606527 C29.4735296,56.6904177 30.4176822,56.2757604 30.7233895,55.1105411 C30.9357755,54.3040486 31.4384226,52.2696561 31.6633587,51.4226622 C31.9709967,50.2703005 31.85161,49.8662506 31.0014221,48.8617512 C29.1488363,46.6785321 27.9649449,43.8524333 27.9649449,39.8508291 C27.9649449,28.2378518 36.66312,17.8418455 50.6139888,17.8418455 C62.9677788,17.8418455 69.7554446,25.3821805 69.7554446,35.4522468 C69.7554446,48.7007099 63.8849005,59.8832793 55.1703137,59.8832793 C50.3578384,59.8832793 46.75532,55.9077118 47.9102498,51.0317914 C49.29269,45.2108379 51.9710071,38.9286183 51.9710071,34.7267572 C51.9710071,30.96559 49.9504432,27.8283375 45.7667594,27.8283375 C40.8474474,27.8283375 36.8954575,32.9115866 36.8954575,39.7219318 C36.8954575,44.0587976 38.3625304,46.9929002 38.3625304,46.9929002 C38.3625304,46.9929002 33.328015,68.3008236 32.4456474,72.0320969 C30.6873482,79.4637852 32.1811302,88.5746751 32.3072747,89.4949573 C32.381288,90.0397977 33.0831275,90.1696594 33.4007412,89.7572521 C33.8544751,89.1658029 39.7140781,81.9401575 41.706002,74.720298 C42.2694687,72.6756194 44.9416717,62.0896422 44.9416717,62.0896422 C46.5403596,65.1349629 51.2112442,67.8170567 56.1788258,67.8170567 C70.9670106,67.8170567 81,54.3500145 81,36.3246344 C81,22.6933365 69.442336,10 51.8767206,10" id="Fill-1-Copy-4" fill="#008BD1"></path>
    </g>
</svg>