<?xml version="1.0" encoding="UTF-8"?>
<svg width="100px" height="100px" viewBox="0 0 100 100" version="1.1" xmlns="http://www.w3.org/2000/svg" xmlns:xlink="http://www.w3.org/1999/xlink">
    <!-- Generator: Sketch 55.2 (78181) - https://sketchapp.com -->
    <title>Artboard</title>
    <desc>Created with Sketch.</desc>
    <g id="Artboard" stroke="none" stroke-width="1" fill="none" fill-rule="evenodd">
        <g id="Twitter_Bird" transform="translate(10.000000, 15.500000)" fill="#008BD1" fill-rule="nonzero">
            <path d="M25.1593963,66.5 C55.3500962,66.5 71.8590567,41.1102624 71.8590567,19.0940222 C71.8590567,18.3728668 71.8445869,17.6549652 71.8127211,16.9403093 C75.01755,14.5884469 77.803179,11.6534887 80,8.31247517 C77.0591711,9.63945966 73.8943422,10.5327802 70.5743079,10.9355871 C73.9631422,8.87282939 76.5647658,5.60978293 77.791979,1.71978461 C74.6207474,3.62823792 71.1087132,5.01532052 67.3694764,5.76408187 C64.3742474,2.52539566 60.1102053,0.5 55.3885607,0.5 C46.3244712,0.5 38.9739975,7.96164811 38.9739975,17.1595789 C38.9739975,18.4670703 39.1179975,19.7388348 39.3996028,20.9586167 C25.7578713,20.2618297 13.6617476,13.6317825 5.56727136,3.55027635 C4.15765554,6.01258709 3.34485033,8.87282939 3.34485033,11.9247299 C3.34485033,17.7053154 6.2424766,22.8086015 10.6489187,25.7939099 C7.95609504,25.7094515 5.42646871,24.9590605 3.21524499,23.7100403 C3.21282888,23.7799463 3.21282888,23.8481 3.21282888,23.9228132 C3.21282888,31.9919146 8.8704868,38.7291616 16.3809605,40.2559226 C15.0017473,40.6376149 13.5505315,40.842264 12.0529184,40.842264 C10.9969079,40.842264 9.96809732,40.7367565 8.96808947,40.5417871 C11.0577078,47.1620891 17.1169657,51.9795107 24.3010394,52.1143247 C18.6833815,56.5841621 11.6065131,59.2462549 3.91523948,59.2462549 C2.59202364,59.2462549 1.28481316,59.1698521 0,59.0156131 C7.26407371,63.742085 15.8897579,66.5 25.1602446,66.5" id="path3611"></path>
        </g>
    </g>
</svg>