<?xml version="1.0" encoding="UTF-8"?>
<svg width="100px" height="100px" viewBox="0 0 100 100" version="1.1" xmlns="http://www.w3.org/2000/svg" xmlns:xlink="http://www.w3.org/1999/xlink">
    <!-- Generator: Sketch 55.2 (78181) - https://sketchapp.com -->
    <title>Artboard</title>
    <desc>Created with Sketch.</desc>
    <g id="Artboard" stroke="none" stroke-width="1" fill="none" fill-rule="evenodd">
        <g id="image(11)" transform="translate(10.000000, 16.500000)" fill="#008BD1" fill-rule="nonzero">
            <path d="M68.3494028,0.5 C76.0896052,0.704925346 79.9616252,5.13208613 80,13.7930819 C80,14.3614598 79.9808126,14.9530367 79.9501127,15.5600797 C79.6085768,22.9025935 74.1862138,32.9052704 63.659999,45.5642436 C52.8037607,58.8263934 43.5938025,65.4652014 36.0301242,65.5 C31.3253706,65.5 27.4188133,61.4401582 24.28359,53.3166082 L20.9910299,42.1810422 L17.7368446,31.0609422 C15.338418,23.003123 12.7749796,18.9819463 10.0388545,18.9819463 C9.44020722,18.9819463 7.36412913,20.1573672 3.79910779,22.5004759 L0,17.9727857 L5.89437329,13.0391113 L11.6928095,8.15570162 C16.8849235,3.96439831 20.8336931,1.69861995 23.5429558,1.36223306 C23.9036792,1.3235679 24.2644026,1.31196835 24.6328009,1.31196835 C30.1933132,1.31196835 33.6662349,5.33701148 35.0285413,13.3909642 C35.7883628,17.9843852 36.41771,21.7194397 36.9280952,24.5883945 C37.4231304,27.4650824 37.8375785,29.4679377 38.1676021,30.6085599 C40.0057562,38.2255963 41.9858973,42.0534471 44.1157001,42.0843793 C45.7504677,42.0843793 48.2678563,39.602076 51.6678659,34.6374695 C54.9911258,29.5375349 56.7793927,25.7599488 57.0096417,23.3008447 C57.0825538,22.8020641 57.1094162,22.3342157 57.1094162,21.9011659 C57.1094162,18.5720957 55.2904495,16.9133603 51.6678659,16.9133603 C49.8297117,16.9133603 47.8687581,17.3077449 45.7696551,18.0694486 C49.5303881,6.38870382 56.7602053,0.53866516 67.4514319,0.5 L68.3494028,0.5 Z" id="Path"></path>
        </g>
    </g>
</svg>