<?xml version="1.0" encoding="UTF-8"?>
<svg width="100px" height="100px" viewBox="0 0 100 100" version="1.1" xmlns="http://www.w3.org/2000/svg" xmlns:xlink="http://www.w3.org/1999/xlink">
    <!-- Generator: Sketch 55.2 (78181) - https://sketchapp.com -->
    <title>Artboard</title>
    <desc>Created with Sketch.</desc>
    <g id="Artboard" stroke="none" stroke-width="1" fill="none" fill-rule="evenodd">
        <path d="M42,38 L64,49.065 L42,60 L42,38 Z M11.989,70.4 C12.569,71.763 13,72.63 13.283,73 C13.566,73.37 13.797,73.645 13.975,73.822 C14.689,74.563 15.53,75.17 16.498,75.645 C17.465,76.118 18.224,76.43 18.774,76.578 C19.325,76.726 20.136,76.874 21.207,77.022 L22.814,77.2 L25.001,77.378 C26.43,77.467 29.413,77.578 33.952,77.711 C38.49,77.845 43.84,77.94 50,78 C61.19,78 70.52,77.719 77.989,77.155 C78.02,77.155 78.265,77.133 78.726,77.089 C79.188,77.045 79.53,77 79.753,76.955 C79.976,76.911 80.333,76.845 80.824,76.756 C81.315,76.667 81.739,76.548 82.097,76.4 C82.454,76.252 82.87,76.066 83.346,75.845 C83.822,75.622 84.284,75.341 84.73,75 C85.177,74.659 85.608,74.267 86.025,73.822 L86.65,73.066 C87.066,72.563 87.542,71.652 88.078,70.333 C88.614,69.015 88.986,67.541 89.194,65.911 C89.76,61.615 90.027,57.318 89.998,53.022 L89.998,45.2 C89.968,43.985 89.886,42.304 89.752,40.155 C89.618,38.007 89.432,35.985 89.194,34.089 C88.986,32.459 88.592,30.963 88.011,29.6 C87.431,28.237 87,27.37 86.717,27 C86.434,26.63 86.203,26.355 86.025,26.178 C85.608,25.733 85.177,25.341 84.73,25 C84.284,24.659 83.822,24.37 83.346,24.133 C82.87,23.896 82.454,23.704 82.097,23.556 C81.739,23.407 81.315,23.289 80.824,23.2 C80.333,23.111 79.983,23.044 79.775,23 C79.567,22.956 79.225,22.911 78.749,22.867 C78.272,22.822 78.02,22.8 77.989,22.8 L74.731,22.622 C72.558,22.474 69.144,22.333 64.486,22.2 C59.828,22.066 55,22 50,22 C38.81,22 29.48,22.267 22.011,22.8 C21.98,22.8 21.728,22.822 21.251,22.867 C20.775,22.911 20.433,22.956 20.225,23 C20.017,23.044 19.667,23.111 19.176,23.2 C18.685,23.289 18.261,23.407 17.903,23.556 C17.546,23.704 17.13,23.896 16.654,24.133 C16.178,24.37 15.716,24.659 15.27,25 C14.823,25.341 14.392,25.733 13.975,26.178 L13.35,26.933 C12.934,27.437 12.458,28.348 11.922,29.667 C11.386,30.985 11.014,32.459 10.806,34.089 C10.24,38.385 9.973,42.682 10.002,46.978 L10.002,54.8 C10.032,56.015 10.114,57.696 10.248,59.845 C10.382,61.992 10.568,64.015 10.806,65.911 C11.014,67.541 11.408,69.037 11.989,70.4 L11.989,70.4 Z" id="Fill-1" fill="#008BD1"></path>
    </g>
</svg>