<?xml version="1.0" encoding="UTF-8" standalone="no"?>
<svg width="80px" height="137px" viewBox="0 0 80 137" version="1.1" xmlns="http://www.w3.org/2000/svg" xmlns:xlink="http://www.w3.org/1999/xlink" xmlns:sketch="http://www.bohemiancoding.com/sketch/ns">
    <!-- Generator: Sketch 3.3.3 (12081) - http://www.bohemiancoding.com/sketch -->
    <title>fingersnap-vectorportal</title>
    <desc>Created with Sketch.</desc>
    <defs></defs>
    <g id="Page-1" stroke="none" stroke-width="1" fill="none" fill-rule="evenodd" sketch:type="MSPage">
        <g id="fingersnap-vectorportal" sketch:type="MSLayerGroup" fill="#FFFFFF">
            <path d="M20.3222958,30.8633996 C23.4890949,28.4021192 25.8233996,25.0693157 26.3906402,22.0241943 C26.6899779,21.9263576 27.1781015,21.7509934 27.7942605,21.4749669 C27.284415,24.6142163 28.6498896,28.6405298 30.4377925,31.2369095 C30.5592936,32.5852539 31.4675497,37.7329801 33.0322296,40.2580132 C32.572362,40.15117 32.0884768,40.0388521 31.5833996,39.921766 C28.5372185,39.2153642 24.8060044,38.3500221 21.9194702,37.5773951 C21.525298,36.6687859 20.9465784,35.367064 20.259426,33.9214128 C20.4254305,33.6550993 20.3572627,32.1824283 20.3222958,30.8633996 M49.9936424,55.3132009 C50.0305519,55.3481678 50.0642826,55.3813687 50.0937748,55.4115673 C50.2926269,55.6174834 50.2543046,55.9719205 50.1875497,56.2332892 C50.0860044,56.6297572 49.854128,57.0578366 49.5662693,57.4297572 C49.609713,56.7682119 49.4445916,56.1849007 49.19117,55.8592494 C49.5623841,55.7435762 49.8196909,55.5284768 49.9936424,55.3132009 M44.3622075,52.0238411 C44.5963797,51.8746137 44.7231788,51.6865342 44.7915232,51.5275938 C44.8264901,51.4458278 44.8476821,51.3622958 44.863223,51.2785872 C45.3725386,51.6980132 46.1153201,52.2682561 47.1606181,53.0638411 C47.9749227,53.6837086 48.8065342,54.3166446 49.3995585,54.8012362 C49.3070199,54.9192053 49.1652097,55.0378808 48.9619426,55.1042826 C47.5104636,54.145872 45.5977042,52.8706402 44.3622075,52.0238411 M43.821457,52.9218543 C45.3144371,53.9456071 47.5547903,55.4299338 48.3192936,55.9351876 C48.083532,56.2385872 47.7649448,56.5257395 47.4451214,56.4787638 C46.7630905,56.3724503 43.204415,54.2513024 42.4480353,53.7788962 C43.2271965,53.7377483 43.6280795,53.2794702 43.821457,52.9218543 M43.3674172,51.3275055 C43.5260044,50.9396909 43.8309934,50.6998675 44.0840618,50.560883 C44.1970861,50.6950993 44.3731567,50.8626932 44.6221634,51.0762031 C44.6184547,51.1950552 44.5984989,51.3137307 44.5509934,51.4242826 C44.4699338,51.613245 44.325298,51.7578808 44.1218543,51.8587196 C43.8018543,51.6381457 43.5427815,51.455894 43.3674172,51.3275055 M43.6090066,52.7759823 C43.451479,53.0857395 43.1048124,53.5055188 42.3803974,53.521766 C42.3547903,53.2330243 42.3698013,52.7765121 42.4981898,52.38234 C42.5285651,52.2882119 42.5734216,52.1826049 42.6313466,52.0833554 C42.8406181,52.2410596 43.1860486,52.4845916 43.6090066,52.7759823 M38.1495806,6.49642384 C38.2846799,6.48300221 38.4203091,6.51249448 38.4626932,6.52379691 C39.2697572,6.73395143 40.1162031,7.80980132 40.067638,9.67646799 C39.9503753,14.1818985 40.0215453,17.3836645 42.8439735,26.0609272 C43.1327152,26.948521 43.3894923,28.0934216 43.6863576,29.4196909 C44.7673289,34.2438852 46.400883,41.5343046 52.144106,45.5272406 C52.7941722,45.9795143 54.0865342,48.1755408 54.1631788,50.2636645 L54.179426,50.7101104 L54.5718322,50.9239735 C61.1464901,54.5121413 71.6810596,64.9852539 69.7474614,81.5526711 C66.0144812,84.7728035 57.8264018,76.3417219 51.9632671,75.1692715 C39.5648565,71.9549669 35.7181457,65.6241943 36.2166887,61.5742163 C36.2166887,61.5742163 44.2142163,63.0403532 48.2926269,59.8182781 C48.475585,59.673819 48.6301104,59.5178808 48.7694481,59.3569978 C49.7903753,58.9935541 50.8911258,57.7059603 51.2019426,56.4927152 C51.3900221,55.7584106 51.2637528,55.1161148 50.8475055,54.6841501 C50.3715673,54.1917881 49.12,53.2392053 47.7947903,52.2308168 C46.7825166,51.4604857 45.4410596,50.4397351 45.0037969,50.0196026 C45.3388079,49.4604857 47.0022075,48.7240618 48.5879029,48.6753201 C48.7736865,48.6926269 48.9589404,48.7115232 49.1427815,48.7267108 C49.4398234,48.7588521 49.7296247,48.8083002 50.0120088,48.8466225 C50.2940397,48.8886534 50.562649,48.9504636 50.8203091,48.9979691 C51.0788521,49.0424724 51.3163797,49.1115232 51.5387196,49.1648565 C51.7598234,49.2238411 51.9675055,49.2648124 52.1437528,49.3241501 C52.321766,49.3790728 52.4768212,49.4274614 52.6048565,49.4670199 C52.8609272,49.5464901 53.0075055,49.5918764 53.0075055,49.5918764 C53.0075055,49.5918764 52.8665784,49.5313024 52.6207506,49.424989 C52.4973068,49.371479 52.3475497,49.3070199 52.1753642,49.2326711 C52.0045916,49.1542605 51.8029139,49.0913907 51.5871082,49.0087417 C51.3698896,48.9312141 51.1371302,48.8354967 50.8822958,48.7630905 C50.628521,48.6876821 50.3629139,48.5962031 50.0824724,48.5227373 C49.8011479,48.4533333 49.5116998,48.3717439 49.2137748,48.306755 C48.9144371,48.2491832 48.6115673,48.1751876 48.3039294,48.1290949 C47.9969978,48.0821192 47.6900662,48.0259603 47.3843709,47.9966446 C47.2317881,47.9789845 47.0804415,47.9615011 46.9308609,47.9441943 C46.780574,47.933245 46.6322296,47.9219426 46.4858278,47.9109934 C46.1935541,47.8841501 45.9097572,47.8825607 45.6400883,47.8701987 C45.3704194,47.8687859 45.114702,47.8640177 44.8784106,47.8724945 C44.7971744,47.8739073 44.721766,47.8770861 44.6454746,47.8800883 C43.6130684,46.873819 41.4806181,44.2818543 40.2707285,43.0855629 C39.75117,42.5720088 39.3008389,42.1926711 38.9303311,41.912053 C39.8150993,41.7103753 40.9193819,41.2180132 41.5408389,40.9207947 C41.6466225,40.887947 41.7488742,40.8554525 41.8454746,40.8201325 C42.0432671,40.7411921 42.2246358,40.6684327 42.3856954,40.6041501 C42.546755,40.5428698 42.6760265,40.4612804 42.787638,40.4086534 C43.0073289,40.2961589 43.1330684,40.2316998 43.1330684,40.2316998 C43.1330684,40.2316998 43.0007947,40.2811479 42.7696247,40.3675055 C42.6528918,40.4065342 42.5181457,40.4713466 42.3519647,40.5137307 C42.1873731,40.558234 42.0014128,40.6083885 41.7988521,40.6634879 C41.594702,40.712053 41.3695364,40.7470199 41.1346578,40.7932892 C40.9001325,40.8388521 40.6460044,40.8566887 40.3881678,40.891479 C40.1319205,40.9207947 39.8638411,40.9280353 39.5945254,40.947638 C39.3622958,40.9381015 39.123532,40.9197351 38.880883,40.891479 C36.2015011,39.7525828 32.875585,35.5625607 32.4874172,33.1109934 C34.5109051,33.506755 37.6245475,32.5236203 38.2513024,32.2606623 C38.3560265,32.2366446 38.4616336,32.2124503 38.5642384,32.1889625 C38.7268874,32.1375717 38.8863576,32.0868874 39.0430022,32.0372627 C39.120883,32.0127152 39.1978808,31.9881678 39.2736424,31.9639735 C39.3488742,31.9360706 39.4209272,31.9028698 39.4929801,31.8732009 C39.6360265,31.8124503 39.7753642,31.7531126 39.910287,31.6960706 C40.0450331,31.6399117 40.1642384,31.5597351 40.2837969,31.4972185 C40.4019426,31.43117 40.5149669,31.3677704 40.6225166,31.3077263 C40.7222958,31.2346137 40.8164238,31.1652097 40.9052539,31.1003974 C40.9933775,31.035585 41.0762031,30.9751876 41.1523179,30.9190287 C41.2293157,30.864106 41.2854746,30.7950552 41.3437528,30.7431347 C41.5675055,30.5246799 41.6957174,30.4001766 41.6957174,30.4001766 C41.6957174,30.4001766 41.5570861,30.5121413 41.3147903,30.708521 C41.2524503,30.7546137 41.1922296,30.8169536 41.1109934,30.864106 C41.0309934,30.9123179 40.9444592,30.964415 40.8513907,31.0202208 C40.7595585,31.0753201 40.6617219,31.1343046 40.5584106,31.1962914 C40.4480353,31.2453863 40.3320088,31.2969536 40.2108609,31.3506402 C40.08883,31.4009713 39.9683885,31.4673731 39.8318764,31.5097572 C39.696777,31.5530243 39.5567329,31.5978808 39.4129801,31.6439735 C39.3407506,31.6662252 39.269404,31.6920088 39.1945254,31.7117881 C39.1187638,31.7282119 39.0419426,31.7453422 38.9647682,31.7622958 C38.8104194,31.7958499 38.6525386,31.8304636 38.4921854,31.8656071 C38.3295364,31.8871523 38.1637086,31.909404 37.9959382,31.9316556 C37.9124062,31.9429581 37.8283444,31.9540839 37.7439294,31.9655629 L37.4869757,31.980574 C37.3149669,31.990287 37.1420751,32.0001766 36.9683002,32.0100662 C36.7941722,32.0083002 36.6193377,32.0068874 36.4445033,32.005298 C36.2701987,32.0081236 36.0957174,31.9962914 35.9224724,31.98234 C35.7490508,31.9682119 35.5765121,31.9611479 35.4060927,31.9418985 C35.0659603,31.8945695 34.7307726,31.8629581 34.4125386,31.7930243 C34.091479,31.7393377 33.7875497,31.66234 33.5012804,31.5872848 C33.4788521,31.5818102 33.4588962,31.5740397 33.4369978,31.5683885 C27.6287859,26.5123179 32.4282561,21.8890949 32.4282561,21.8890949 L32.3712141,21.853245 C35.0103311,19.7921413 38.0628698,16.5082561 38.7012804,13.3156733 C39.456777,9.53818985 38.6147461,7.35011038 38.1495806,6.49642384 M28.0566887,9.49315673 C28.0340839,9.84547461 27.9537307,10.2587196 27.7578808,10.6830905 C27.3490508,10.7109934 26.9683002,10.6887417 26.6181015,10.621457 C26.9799558,10.306755 27.4797351,9.9185872 28.0566887,9.49315673 M34.255894,6.86163355 C33.8152759,7.91611479 31.828521,9.54543046 29.5420751,10.3124062 C29.130596,10.4505077 28.7334216,10.5497572 28.3530243,10.6140397 C28.56,10.0464459 28.6011479,9.51452539 28.5852539,9.10781457 C30.1720088,7.96379691 32.1433996,6.64529801 33.4438852,5.77536424 C33.8140397,5.52812362 34.1084327,5.33086093 34.3429581,5.17262693 C34.3569095,5.72785872 34.3468433,6.38587196 34.255894,6.86163355 M13.990287,8.63629139 L13.9802208,8.64423841 C13.6943046,8.83214128 13.3310375,8.89465784 13.0136865,8.90596026 L13.0537748,7.48821192 C13.3958499,7.61660044 13.8336424,7.921766 13.990287,8.63629139 M14.4591611,7.89969095 C14.4416777,7.98746137 14.4173068,8.06816777 14.3869316,8.14375276 C14.1011921,7.42587196 13.5396026,7.0790287 13.0689625,6.94304636 L13.2056512,2.12450331 C13.5445475,2.12997792 13.9770419,2.15487859 14.4323179,2.22428256 C14.5135541,3.33951435 14.7189404,6.6006181 14.4591611,7.89969095 M11.9496689,18.6807947 C12.0187196,15.1187638 12.0840618,11.7541722 12.9522296,9.49827815 L12.9780132,9.43064018 C13.3820751,9.42181015 13.8673731,9.34428256 14.2656071,9.08326711 C14.6403532,8.83779249 14.878234,8.47399558 14.9727152,8.00247241 C15.2379691,6.67708609 15.0543046,3.57456954 14.965298,2.32653422 C15.8218102,2.52644592 16.6656071,2.91426049 17.0525386,3.65863135 C19.371479,8.11708609 18.9515232,13.2513907 18.8240177,14.3736865 C18.7826932,14.4174834 18.7397792,14.4626932 18.6896247,14.5158499 C18.4445033,14.7749227 18.0943046,15.1452539 17.6745254,15.5892274 C17.4643709,15.8117439 17.2369095,16.0522737 16.9960265,16.3069316 C16.7563797,16.5619426 16.5188521,16.8390287 16.2649007,17.1215894 C15.7605298,17.6881236 15.2226049,18.2924503 14.6848565,18.896777 C14.1548786,19.4965121 13.6245475,20.0966004 13.1275938,20.6588962 C12.6756733,21.1763355 12.2415894,21.6556291 11.8560706,22.075585 C11.9028698,20.9340397 11.9281236,19.7954967 11.9496689,18.6807947 M7.43752759,28.319117 C8.62710817,27.5263576 9.92282561,26.3897572 11.5148786,24.7433113 L10.950287,24.1970861 L11.5083444,24.7166446 C11.5083444,24.7166446 12.0593377,24.1289183 12.8863576,23.2467991 C13.0929801,23.0262252 13.3167329,22.7872848 13.5537307,22.5345695 C13.7910817,22.2823841 14.0301987,22.0005298 14.2834437,21.7176159 C14.7871082,21.1475497 15.3245033,20.5395143 15.8617219,19.9318322 C16.395585,19.3320971 16.9290949,18.7321854 17.429404,18.1698896 C17.680883,17.8905077 17.9187638,17.6128918 18.1534658,17.3630022 C18.3886976,17.1145254 18.6112141,16.8794702 18.8164238,16.6622517 C19.2271965,16.2279912 19.5692715,15.8661369 19.8085651,15.6128918 C19.9283002,15.4860927 20.0220751,15.3866667 20.0860044,15.3188521 C20.1038411,15.3003091 20.1188521,15.2842384 20.1317439,15.2706402 C22.5167329,12.8771744 24.3357174,11.5846358 25.8555408,11.2028256 L26.0768212,11.1473731 L26.1603532,11.0596026 C26.2701987,11.0919205 26.3811038,11.1207064 26.493245,11.1429581 C27.6075938,11.3658278 28.8012362,11.1131126 29.7086093,10.80883 C31.9574393,10.0543929 34.2191611,8.3615011 34.7510817,7.03470199 L34.7645033,6.98860927 C34.8856512,6.38286976 34.8833554,5.52741722 34.8588079,4.89501104 C35.3186755,5.03028698 36.1930243,5.5581457 36.6845033,6.5202649 L36.6783223,6.52379691 C37.2656954,7.76918322 37.8440618,10.416777 35.1161148,14.1541722 C32.2315232,18.1063135 28.6818543,19.9699779 26.9100221,20.706755 C24.7992936,20.4895364 23.7149669,20.1013687 22.9946137,18.4505077 C22.899426,19.932362 23.8442384,21.2778808 25.3068433,22.0874172 C24.553819,25.4691391 21.3345695,29.3402208 17.3900221,31.5593819 C15.3612362,31.7622958 13.6376159,30.9803091 13.1883444,30.7719205 C13.44,31.2662252 14.8257837,32.5052539 16.9524062,32.806181 C17.0271082,33.7986755 16.9094923,34.7214128 16.7574393,35.4301104 C13.0716115,35.0032671 11.45766,34.0241943 10.0688742,34.8566887 C8.32476821,35.9019868 7.97721854,38.8067108 7.64909492,42.7846358 C7.44264901,45.2824724 6.15099338,50.8847682 5.21836645,54.708521 C5.62101545,49.4465342 5.70578366,42.3881678 4.61598234,36.6327594 C3.45730684,30.5112583 5.85766004,29.1984106 7.01121413,28.5675938 C7.17315673,28.4789404 7.31284768,28.4024724 7.43752759,28.319117 M41.8152759,113.21819 L41.8262252,113.05766 L39.6397351,106.83638 L39.4181015,106.690684 C36.1658278,104.552759 26.819426,98.0259603 22.6802649,93.5584989 C19.757351,90.4037086 17.6104194,89.0474172 14.3606181,86.9947903 C12.9472848,86.1022517 11.3451656,85.0903311 9.36211921,83.7320971 C6.82454746,81.9941722 5.52971302,80.4713466 5.40432671,79.0765563 C5.40432671,79.0765563 5.39090508,79.0000883 5.36741722,78.8665784 C5.3614128,78.8328477 5.35240618,78.795585 5.34640177,78.7533775 C5.34463576,78.710287 5.34233996,78.6634879 5.34004415,78.6140397 C5.33386313,78.5137307 5.32538631,78.399117 5.33898455,78.2682561 C5.34269316,78.2023841 5.34657837,78.1338631 5.35081678,78.0635762 C5.3612362,77.99117 5.37271523,77.9162914 5.38419426,77.8392936 C5.4015011,77.6845916 5.44529801,77.518234 5.48291391,77.3455188 C5.57068433,76.9988521 5.68706402,76.6239294 5.82410596,76.2456512 C5.96291391,75.8626049 6.10172185,75.4793819 6.23187638,75.1205298 C6.29704194,74.9391611 6.35567329,74.7602649 6.40706402,74.5891391 C6.46339956,74.4211921 6.49783664,74.251479 6.53845475,74.1027815 C6.56582781,73.9464901 6.59620309,73.8090949 6.60856512,73.6810596 C6.61615894,73.5516115 6.63064018,73.4419426 6.62657837,73.352936 C6.61403974,73.1754525 6.60715232,73.0742605 6.60715232,73.0742605 C6.60715232,73.0742605 6.58966887,73.1745695 6.5592936,73.3501104 C6.54181015,73.4375276 6.50154525,73.5364238 6.46710817,73.6499779 C6.42754967,73.761766 6.36556291,73.8875055 6.30675497,74.0217219 C6.23311258,74.1534658 6.16618102,74.2973951 6.07346578,74.4434437 C5.98622517,74.5909051 5.89033113,74.7440177 5.78578366,74.9017219 C5.57368653,75.218543 5.34763797,75.5565563 5.1214128,75.8947461 C4.89236203,76.2371744 4.67284768,76.5984989 4.4819426,76.9562914 C4.39152318,77.1399558 4.29721854,77.3133775 4.22763797,77.4954525 C4.19214128,77.5819868 4.15788079,77.6660486 4.12432671,77.7472848 C4.03019868,77.6524503 3.93377483,77.5503753 3.82834437,77.4449448 C3.73951435,77.34234 3.64750552,77.2354967 3.55196468,77.1251214 C3.45924945,77.0124503 3.37607064,76.8898896 3.28229581,76.7669757 C3.19205298,76.6424724 3.11788079,76.5064901 3.03011038,76.3710375 C2.95664459,76.2306402 2.8789404,76.0872406 2.81253863,75.9364238 C2.68203091,75.6339073 2.58313466,75.3079029 2.52344371,74.9640618 C2.47187638,74.6195143 2.45880795,74.2583664 2.48724062,73.8924503 C2.55187638,73.1584989 2.77439294,72.4162472 3.01492274,71.7216777 C3.02145695,71.7018985 3.02834437,71.6831788 3.03523179,71.663223 L3.05112583,71.6425607 L3.04423841,71.6365563 C3.27275938,70.972362 3.50604857,70.3417219 3.62101545,69.7713024 C3.68812362,69.4763797 3.71090508,69.196468 3.7184989,68.9509934 C3.71567329,68.704106 3.68988962,68.491479 3.64944812,68.3203532 C3.62596026,68.2359382 3.60547461,68.1603532 3.58728477,68.0944812 C3.5618543,68.0326711 3.54030905,67.9795143 3.52264901,67.9369536 C3.48715232,67.8513024 3.46807947,67.8057395 3.46807947,67.8057395 C3.46807947,67.8057395 3.4811479,67.853245 3.50622517,67.9426049 C3.5180574,67.9872848 3.53306843,68.0423841 3.55037528,68.1070199 C3.5599117,68.172362 3.57086093,68.247947 3.58286976,68.3321854 C3.6010596,68.5010155 3.6001766,68.7081678 3.57368653,68.941457 C3.53730684,69.1740397 3.48362031,69.4332892 3.38384106,69.7068433 C3.22313466,70.1886093 2.9584106,70.7152318 2.67602649,71.2874172 C1.41615894,69.8587196 2.21209713,67.3956733 3.38701987,64.3659161 C3.81969095,63.2510375 4.22887417,62.1919647 4.38816777,61.3052539 L4.39381898,61.3064901 C4.41801325,61.1957616 4.44203091,61.0765563 4.46675497,60.9492274 C7.10110375,53.1844592 8.15770419,48.9239735 9.52847682,40.6165121 C9.75152318,39.2653422 10.325298,37.5002208 11.7942605,36.7632671 C12.7962914,36.2603091 14.1026049,36.2809713 15.6890066,36.8162472 L15.6801766,36.8301987 C15.6801766,36.8301987 15.6953642,36.8383223 15.7239735,36.8538631 C15.7430464,36.8621634 15.7840177,36.8875938 15.8377042,36.9215011 C15.9410155,36.9932009 16.0973068,37.0996909 16.2629581,37.2609272 C16.3493157,37.3375717 16.4323179,37.432053 16.5234437,37.5302428 C16.6069757,37.6346137 16.7028698,37.7412804 16.7821634,37.8664901 C16.87117,37.985872 16.9460486,38.1202649 17.0225166,38.258543 C17.1033996,38.3948786 17.1567329,38.5469316 17.2277263,38.6942163 C17.2807064,38.8471523 17.3354525,39.0018543 17.3818985,39.1576159 C17.4166887,39.3156733 17.4573068,39.4716115 17.4860927,39.6256071 C17.5062252,39.7815453 17.5254746,39.932362 17.5438411,40.0754084 C17.5565563,40.2195143 17.5547903,40.3572627 17.5607947,40.484415 C17.5657395,40.6120971 17.5692715,40.7302428 17.5588521,40.8333775 C17.5519647,40.9375717 17.5464901,41.028521 17.5418985,41.103223 C17.532362,41.2536865 17.5267108,41.3396909 17.5267108,41.3396909 C17.5267108,41.3396909 17.5484327,41.2565121 17.5862252,41.1104636 C17.6049448,41.037351 17.6280795,40.9481678 17.6545695,40.8459161 C17.6851214,40.7441943 17.7041943,40.6265784 17.7236203,40.4971302 C17.7425166,40.3682119 17.771479,40.2278146 17.7868433,40.0775276 C17.7962031,39.926181 17.8064459,39.7665342 17.8166887,39.6010596 C17.8175717,39.4354084 17.8069757,39.2626932 17.8016777,39.0853863 C17.7849007,38.9100221 17.7578808,38.7309492 17.7313907,38.5508168 C17.6865342,38.3756291 17.6572185,38.1926711 17.5971744,38.0218985 C17.5445475,37.8601325 17.4898013,37.7004857 17.4212804,37.5507285 C17.4876821,37.5837528 17.5530243,37.615011 17.6204857,37.6498013 C18.6624283,38.1882561 19.7070199,38.5969095 20.7846358,38.8904194 L20.7830464,38.8964238 C23.7783664,39.7243267 27.909404,40.6820309 31.2287859,41.4520088 C33.7290949,42.0316115 35.8889183,42.5324503 36.7404857,42.7874614 L36.9347461,42.1386313 L36.948521,42.145872 L36.7835762,42.6970419 C37.9864018,43.0574834 39.0952759,44.3966446 40.3793377,45.9479029 C41.2362031,46.9826049 42.2069757,48.155585 43.3497572,49.192936 C43.6519205,49.4675497 43.8472406,49.7893157 43.8889183,50.0724062 C43.60883,50.2170419 43.2644592,50.4596909 43.0242826,50.8452097 C42.2742605,49.8048565 40.235585,48.541457 37.7144371,47.0486534 C37.1304194,46.7028698 36.6264018,46.404415 36.334128,46.2096247 C35.3986755,45.5855188 32.9139073,45.6422075 29.4066225,45.9687417 C20.9047241,46.0588079 18.1057837,44.6680795 14.6062693,46.1522296 C10.5222075,47.8841501 12.1188521,51.025872 11.5539073,54.2945695 C11.1886976,56.4083002 10.7793377,59.745872 10.3532009,62.3865784 C10.2581898,62.7242384 10.1630022,63.0599558 10.0706402,63.3937307 C9.89704194,64.0030022 9.73792494,64.6066225 9.55549669,65.1812804 C9.37889625,65.758234 9.20847682,66.3159382 9.04688742,66.8446799 C8.89289183,67.3771302 8.70852097,67.8657837 8.55629139,68.3237086 C8.3996468,68.7809272 8.25607064,69.1994702 8.12891832,69.5705077 C7.98057395,69.9334216 7.85130243,70.249713 7.74445916,70.5101987 C7.53094923,71.032053 7.40891832,71.3305077 7.40891832,71.3305077 C7.40891832,71.3305077 7.54596026,71.0389404 7.78560706,70.5289183 C7.90569536,70.2728477 8.05139073,69.9623841 8.21863135,69.6065342 C8.36450331,69.2413245 8.52980132,68.8298455 8.70958057,68.380574 C8.88547461,67.9300662 9.09545254,67.447947 9.27646799,66.9241501 C9.46507726,66.4024724 9.66445916,65.8527152 9.87055188,65.2842384 C10.0828256,64.7166446 10.2724945,64.1213245 10.4775276,63.52 C10.6777925,62.9172627 10.8902428,62.3072848 11.0869757,61.6927152 C11.2812362,61.0769095 11.4756733,60.461457 11.6669316,59.8555408 C11.8622517,59.2503311 12.0409713,58.6513024 12.2115673,58.070287 C12.3837528,57.4894481 12.5501104,56.9282119 12.7081678,56.3959382 C12.8568653,55.8588962 12.9972627,55.3509934 13.127064,54.8822958 C13.2536865,54.413245 13.3806623,53.98234 13.4740839,53.6010596 C13.5682119,53.2201325 13.6505077,52.8875938 13.7179691,52.6136865 C13.8535982,52.0662252 13.9307726,51.7534658 13.9307726,51.7534658 L13.4394702,51.6464459 L13.4394702,51.6460927 L13.9328918,51.7446358 C14.6866225,47.9758057 17.6102428,47.687947 19.9339514,47.756468 C19.9556733,47.7647682 19.9816336,47.7755408 20.0109492,47.7873731 C20.0708168,47.8179249 20.1499338,47.8486534 20.2322296,47.9018102 C20.3189404,47.9489625 20.4091832,48.0146578 20.5087859,48.0875938 C20.6009713,48.167947 20.7113466,48.2495364 20.8038852,48.3592053 C20.8513907,48.4130684 20.9043709,48.4656954 20.9524062,48.5252097 C20.9969095,48.5873731 21.0422958,48.6511258 21.0885651,48.7162914 C21.1397792,48.7789845 21.1738631,48.8536865 21.2143046,48.9267991 C21.2520971,49.0013245 21.3008389,49.0726711 21.3317439,49.1532009 C21.3880795,49.3158499 21.4735541,49.4754967 21.5064018,49.6531567 C21.5512583,49.827638 21.5996468,50.0037086 21.6134216,50.1849007 C21.6372627,50.3639735 21.6635762,50.5425166 21.6577483,50.7180574 C21.6554525,50.8925386 21.6725828,51.0641943 21.6547461,51.2256071 C21.6400883,51.3875497 21.6263135,51.5411921 21.6139514,51.682649 C21.606181,51.8264018 21.5773951,51.9542605 21.5570861,52.0688742 C21.5357174,52.1836645 21.5175276,52.2834437 21.5021634,52.3657395 C21.4716115,52.5315673 21.454128,52.6262252 21.454128,52.6262252 C21.454128,52.6262252 21.4871523,52.5363355 21.5454305,52.3784547 C21.5747461,52.2991611 21.6100662,52.2027373 21.6506843,52.0921854 C21.6907726,51.9816336 21.7418102,51.85766 21.7739514,51.7158499 C21.8113907,51.5742163 21.8521854,51.4211038 21.8950993,51.2589845 C21.9417219,51.0968653 21.9549669,50.9184989 21.988521,50.7360706 C22.0256071,50.5534658 22.0312583,50.3609713 22.0386755,50.1633554 C22.0565121,49.9655629 22.0386755,49.7637086 22.0215453,49.5595585 C22.0166004,49.3539956 21.9554967,49.1544371 21.9196468,48.9518764 C21.8984547,48.8510375 21.8578366,48.7560265 21.8274614,48.6588962 C21.7939073,48.5624724 21.766181,48.4644592 21.7183223,48.3763355 C21.6748786,48.2855629 21.6319647,48.1963797 21.5897572,48.1091391 C21.5426049,48.0241943 21.4885651,47.9457837 21.4394702,47.8659603 C21.425872,47.843532 21.4096247,47.8251656 21.3949669,47.8037969 C22.3664459,47.7808389 23.9743929,47.6024724 25.7953201,47.3993819 C29.3557616,47.0023841 34.7362472,46.4030022 35.7527594,47.0807947 C36.0688742,47.2913024 36.5841943,47.5962914 37.1809272,47.9494923 C38.6564238,48.8236645 42.1049007,50.8655188 42.2890949,51.6526269 C41.9484327,52.0930684 41.8693157,52.7429581 41.8518322,53.0557174 C41.8362914,53.3359823 41.8286976,54.006181 42.0990728,54.1781898 C42.140574,54.2043267 46.3272406,56.7895806 47.3294481,56.9898455 L47.36883,56.9969095 C48.1199117,57.1069316 48.704989,56.3397792 48.9674172,55.9141722 C49.0108609,55.906755 49.0516556,55.8968653 49.0919205,55.8866225 C49.6353201,57.3499338 47.5998234,59.0696689 45.4092715,59.37766 C43.0486534,59.7096689 36.3878146,58.7722737 32.8944812,54.2691391 C32.8944812,54.2691391 32.3897572,52.9001325 32.655011,50.6837969 C31.4912141,52.0529801 31.4331126,53.7320971 31.5046358,54.8144812 C31.0041501,57.3170861 24.3033996,60.2929801 19.3478146,57.0325828 C19.445298,58.0531567 21.9161148,59.8822075 24.4319647,60.8750552 C24.8538631,65.6609272 19.1007506,72.1781898 10.9207947,74.3687417 C18.6774393,73.5175276 24.4960706,67.6732892 24.4960706,67.6732892 C24.4960706,67.6732892 26.9218543,67.5576159 25.9078146,68.7343046 C24.8937748,69.9109934 15.0438852,78.8644592 15.7937307,81.4836203 C18.0252539,77.0647241 26.5245033,71.2607506 26.5245033,71.2607506 C27.8248124,70.7643267 28.4261369,72.1084327 28.4261369,72.1084327 C28.641766,76.978543 25.4498896,81.8131567 23.3622958,84.6883885 C25.9547903,83.2935982 29.2877704,77.6107726 29.8566004,75.5687417 C36.1223841,77.1657395 49.0239294,79.6316115 55.3986755,83.7990287 C66.6336424,92.2530684 57.6662252,108.279735 45.4728477,105.840883 C48.4543929,108.019073 55.3522296,107.2083 60.3157616,102.861987 L69.0756733,129.702958 C62.8367329,132.778985 54.7037528,134.235585 49.3204415,134.16106 C47.922649,128.211214 44.2950993,121.916821 42.7429581,120.260839 C41.7924945,119.247506 41.6697572,115.403267 41.8152759,113.21819 M77.8299338,120.701634 C77.044415,124.170949 74.1306843,126.949404 70.3106402,129.060309 L63.6589845,98.796468 C64.1928477,97.8710817 64.6548344,96.8692274 65.0163355,95.7783664 C66.0279029,92.7272406 67.6692274,87.8530684 69.3275055,85.8094481 C68.8602208,95.8527152 72.384989,104.319647 75.0430022,110.695099 C76.8503311,115.032053 78.2786755,118.457219 77.8299338,120.701634 M76.8828256,109.925828 C73.9772185,102.954172 69.9977042,93.4064459 71.6838852,82.1619426 C72.6882119,74.2221634 71.1577925,66.9068433 67.1339514,60.4201325 C63.3683002,54.3480795 58.6767329,51.0002649 56.0969536,49.4950993 C55.8067991,47.295894 54.547638,44.7694481 53.282649,43.8898013 C48.1773068,40.3403091 46.7065784,33.7764238 45.6296689,28.971479 C45.3227373,27.6014128 45.0574834,26.4181898 44.7404857,25.4440618 C42.0139514,17.0606623 41.9461369,14.150287 42.061457,9.72821192 C42.1384547,6.7583223 40.5622958,5.00962472 38.965298,4.59355408 C38.5531126,4.48653422 38.1343929,4.46958057 37.740574,4.54392936 C36.8595143,3.52865342 35.6409713,2.86128035 34.6375276,2.86128035 C34.5605298,2.86128035 34.4856512,2.86534216 34.4127152,2.87328918 L34.0678146,2.91161148 L33.7954967,3.12724062 C33.683532,3.21624724 32.9359823,3.71620309 32.335011,4.11761589 C29.4656071,6.03673289 26.3099338,8.17571744 25.0387638,9.3614128 C23.8048565,9.74110375 22.4568653,10.5469316 20.9384547,11.8128035 C20.9057837,9.28229581 20.47117,5.90905077 18.8218985,2.73854305 C17.595585,0.380220751 14.3839294,0.125562914 13.0601325,0.125562914 C12.6539514,0.125562914 12.3839294,0.14799117 12.3339514,0.152406181 L11.2639294,0.248653422 L11.0163355,8.98207506 C10.093245,11.5464901 10.0263135,14.9937307 9.95567329,18.641766 C9.92706402,20.1160265 9.89192053,21.9406623 9.77342163,23.670287 C8.43373068,25.0308168 7.30684327,26.0098896 6.33200883,26.6596026 C6.2800883,26.6940397 6.16688742,26.7560265 6.05421634,26.81766 C4.60997792,27.6075938 1.22790287,29.4573068 2.65642384,37.0037969 C4.17818985,45.041766 3.34940397,56.0446799 2.54975717,60.3519647 L2.50136865,60.3466667 L2.45403974,60.7671523 C2.37686534,61.4553642 1.96432671,62.5186755 1.52741722,63.6448565 C0.39611479,66.5622958 -1.14225166,70.5290949 1.50145695,72.9412804 C1.41668874,73.1975276 1.34905077,73.4437086 1.29589404,73.6891832 C1.20229581,74.1439294 1.1604415,74.6050331 1.17227373,75.0677263 C1.19222958,75.5242384 1.26693157,75.9773951 1.39461369,76.415894 C1.45359823,76.6150993 1.52353201,76.8005298 1.59134658,76.9797792 L1.61818985,77.0467108 C1.64432671,77.1026932 1.66958057,77.1584989 1.69448124,77.2137748 C1.75028698,77.3373951 1.80750552,77.4647241 1.8793819,77.5968212 C1.90922737,77.6487417 1.93854305,77.7017219 1.96715232,77.7534658 C2.02984547,77.8666667 2.09183223,77.9781015 2.16317881,78.0900662 L2.4415011,78.5082561 L2.59655629,78.714702 C2.74013245,78.9056071 2.87558499,79.0860927 3.01492274,79.2372627 C3.06525386,79.2939514 3.11311258,79.3488742 3.1590287,79.4018543 C3.27152318,79.5313024 3.37766004,79.6533333 3.47320088,79.7448124 L3.49298013,79.7649448 C3.86878587,81.6349669 5.38048565,83.42234 8.23523179,85.3780132 C10.239117,86.7503753 11.8521854,87.7693598 13.275585,88.6684327 L13.2966004,88.6818543 C16.5241501,90.7203532 18.4722296,91.9509051 21.2174834,94.9140839 C25.1895806,99.2015894 33.8463576,105.384194 37.9807506,108.131214 L39.8105077,113.337219 C39.7243267,114.937748 39.6125386,119.838057 41.2877704,121.625077 C42.5882561,123.012097 46.2712583,129.296247 47.5037528,135.178455 L47.6974834,136.103664 L48.642649,136.139161 C48.9997351,136.15223 49.3734216,136.15894 49.7531126,136.15894 L49.7545254,136.15894 C55.363532,136.15894 62.2046799,134.777042 67.6074172,132.552583 C72.4289625,130.567594 78.4547461,126.973245 79.7815453,121.112583 C80.3535541,118.251479 78.8224283,114.57872 76.8828256,109.925828" id="Fill-79" sketch:type="MSShapeGroup"></path>
        </g>
    </g>
</svg>