<?xml version="1.0" standalone="no"?>
<!DOCTYPE svg PUBLIC "-//W3C//DTD SVG 20010904//EN"
 "http://www.w3.org/TR/2001/REC-SVG-20010904/DTD/svg10.dtd">
<svg version="1.0" xmlns="http://www.w3.org/2000/svg"
 width="1000.000000pt" height="1000.000000pt" viewBox="0 0 1000.000000 1000.000000"
 preserveAspectRatio="xMidYMid meet">
<metadata>
Created by potrace 1.11, written by Peter Selinger 2001-2013
</metadata>
<g transform="translate(0.000000,1000.000000) scale(0.100000,-0.100000)"
fill="#000000" stroke="none">
<path d="M4738 9995 c-2 -1 -52 -6 -113 -9 -60 -4 -119 -9 -130 -11 -11 -2
-47 -7 -80 -10 -33 -3 -69 -7 -80 -9 -11 -2 -42 -7 -70 -10 -268 -36 -594
-117 -900 -222 -228 -78 -335 -123 -560 -233 -647 -318 -1204 -757 -1667
-1316 -377 -455 -689 -1018 -878 -1585 -51 -152 -119 -394 -134 -470 -2 -14
-14 -68 -25 -120 -11 -52 -25 -124 -31 -160 -5 -36 -12 -76 -14 -90 -6 -35
-15 -106 -22 -170 -3 -30 -7 -66 -10 -80 -24 -151 -25 -865 0 -995 2 -11 7
-51 11 -90 4 -38 9 -77 10 -86 2 -9 6 -40 10 -70 3 -30 13 -85 20 -124 8 -38
17 -86 20 -105 11 -64 55 -251 81 -344 14 -50 27 -101 30 -112 2 -12 27 -89
55 -170 515 -1504 1681 -2660 3183 -3156 132 -43 409 -119 484 -133 15 -2 70
-13 122 -24 52 -10 131 -24 175 -31 44 -6 91 -13 105 -15 14 -2 50 -7 80 -10
30 -4 69 -8 85 -10 212 -26 858 -26 1005 -1 14 3 50 7 80 10 181 17 510 79
715 136 61 17 118 33 129 35 10 2 91 29 180 59 396 134 806 335 1156 567 51
34 98 65 104 70 6 5 36 27 66 49 30 22 60 43 65 47 6 5 51 39 100 78 50 38 92
72 95 75 3 3 34 30 70 60 231 196 518 501 712 755 4 6 18 24 31 40 88 112 256
369 351 535 156 274 338 698 429 1000 27 90 75 268 83 310 3 14 9 41 14 60 24
89 71 367 85 500 3 30 8 69 10 85 27 195 27 792 0 1010 -2 17 -6 57 -10 89 -3
32 -7 62 -9 65 -2 3 -7 36 -10 74 -4 37 -9 73 -11 80 -2 6 -7 29 -10 50 -10
70 -50 253 -89 412 -120 482 -399 1094 -694 1525 -342 499 -749 917 -1227
1261 -641 461 -1408 773 -2175 884 -63 9 -125 18 -138 20 -13 2 -65 7 -115 11
-51 3 -101 8 -112 11 -22 5 -631 13 -637 8z"/>
</g>
</svg>
