<?xml version="1.0" standalone="no"?>
<!DOCTYPE svg PUBLIC "-//W3C//DTD SVG 20010904//EN"
 "http://www.w3.org/TR/2001/REC-SVG-20010904/DTD/svg10.dtd">
<svg version="1.0" xmlns="http://www.w3.org/2000/svg"
 width="1000.000000pt" height="1000.000000pt" viewBox="0 0 1000.000000 1000.000000"
 preserveAspectRatio="xMidYMid meet">
<metadata>
Created by potrace 1.11, written by Peter Selinger 2001-2013
</metadata>
<g transform="translate(0.000000,1000.000000) scale(0.100000,-0.100000)"
fill="#000000" stroke="none">
<path d="M4668 8925 c-2 -2 -61 -6 -133 -10 -71 -3 -143 -8 -160 -10 -16 -2
-57 -7 -90 -10 -33 -3 -85 -8 -115 -11 -63 -6 -345 -42 -375 -48 -11 -2 -45
-7 -75 -12 -30 -4 -57 -8 -60 -9 -3 -1 -27 -5 -55 -9 -59 -9 -106 -18 -175
-31 -14 -3 -38 -8 -55 -11 -16 -3 -84 -17 -150 -31 -66 -14 -127 -26 -135 -28
-8 -2 -46 -11 -85 -20 -38 -9 -80 -18 -92 -21 -91 -18 -563 -146 -753 -204
-52 -16 -97 -29 -100 -29 -35 -2 -809 -279 -927 -332 l-51 -24 255 -180 c141
-99 289 -202 328 -230 40 -27 126 -88 191 -134 66 -47 133 -94 149 -105 17
-11 35 -24 40 -29 9 -7 113 -81 295 -208 112 -79 398 -281 562 -397 l157 -111
68 19 c78 21 361 86 413 95 19 3 67 12 105 20 39 8 86 17 105 20 19 3 60 10
90 15 30 5 75 12 100 15 25 3 61 8 80 11 83 12 277 34 350 39 36 3 76 7 90 9
48 9 347 19 560 19 188 0 324 -5 490 -18 149 -12 236 -21 310 -30 19 -3 58 -7
85 -10 28 -3 61 -8 75 -10 14 -2 75 -11 135 -21 132 -20 143 -21 175 -29 23
-5 116 -22 165 -30 36 -6 217 -47 345 -79 l125 -31 3 -1817 2 -1816 -1932 1
-1933 2 -1 815 -1 815 -991 3 -992 2 0 -1807 0 -1808 3912 1 3913 0 0 3503 0
3503 -85 33 c-47 18 -116 46 -155 61 -275 106 -693 244 -1070 353 -202 58
-694 180 -830 205 -11 2 -69 14 -130 26 -103 20 -344 62 -427 74 -21 3 -53 8
-71 11 -19 3 -49 7 -68 9 -50 6 -130 16 -159 21 -14 3 -55 7 -91 11 -36 3 -79
7 -95 9 -16 2 -76 7 -134 10 -58 4 -121 9 -140 12 -39 5 -777 13 -782 8z"/>
</g>
</svg>
