<svg xmlns="http://www.w3.org/2000/svg" width="202" height="48" viewBox="0 0 202 48">
  <g fill="none" fill-rule="evenodd">
    <path fill="#19191A" d="M62,10 L82.311,10 L82.311,12.97 L73.802,12.97 L73.802,36.771 L70.47,36.771 L70.47,12.97 L62,12.97 L62,10 Z M89,23.848 C89,15.94 94.379,10 102.286,10 C110.192,10 115.613,15.94 115.613,23.848 C115.613,31.756 110.192,37.696 102.286,37.696 C94.379,37.696 89,31.756 89,23.848 Z M112.159,23.848 C112.159,17.586 108.267,12.97 102.286,12.97 C96.265,12.97 92.452,17.586 92.452,23.848 C92.452,30.07 96.265,34.726 102.286,34.726 C108.267,34.726 112.159,30.07 112.159,23.848 Z M131.798,10 L135.932,10 L146.69,36.772 L142.877,36.772 L140.508,30.791 L127.182,30.791 L124.814,36.772 L121,36.772 L131.798,10 Z M133.845,13.41 L128.185,27.86 L139.545,27.86 L133.845,13.41 Z M153,33.44 L155.007,30.871 C156.733,32.878 159.623,34.724 163.394,34.724 C168.173,34.724 169.698,32.155 169.698,30.068 C169.698,23.164 153.843,27.018 153.843,17.464 C153.843,13.051 157.777,10 163.075,10 C167.129,10 170.3,11.405 172.548,13.773 L170.541,16.22 C168.532,13.974 165.722,13.011 162.794,13.011 C159.623,13.011 157.295,14.735 157.295,17.263 C157.295,23.286 173.148,19.832 173.148,29.827 C173.148,33.681 170.501,37.695 163.276,37.695 C158.66,37.695 155.208,35.929 153,33.44 Z M181,10 L201.311,10 L201.311,12.97 L192.801,12.97 L192.801,36.772 L189.47,36.772 L189.47,12.97 L181,12.97 L181,10 Z"/>
    <path fill="#E75931" d="M23.8005566,0.00830553776 L23.8005566,0 C23.699852,0 23.6012237,0.00311457666 23.5005191,0.00311457666 C23.4008526,0.00311457666 23.3022244,0 23.2015197,0 L23.2015197,0.00830553776 C11.8758808,0.00830553776 0,5.11205849 0,5.11205849 L11.8758808,13.4861169 L11.8997592,13.480926 C15.2645402,12.5579731 19.270924,11.925714 23.5005191,11.8966447 C27.729076,11.925714 31.736498,12.5579731 35.1023172,13.480926 L35.1023172,35.258046 L11.8997592,35.258046 L11.8997592,25.4440149 L0,25.4440149 L0,47.1110866 L47,47.1110866 L47,5.11205849 C47,5.11205849 35.1023172,0.00830553776 23.8005566,0.00830553776"/>
  </g>
</svg>
