<svg xmlns="http://www.w3.org/2000/svg" width="100" height="100" viewBox="0 0 100 100">
  <title>
    play
  </title>
  <path fill="#FFF" fill-rule="evenodd" d="M50,99 C22.9380473,99 1,77.0619527 1,50 C1,22.9380473 22.9380473,1 50,1 C77.0619527,1 99,22.9380473 99,50 C99,77.0619527 77.0619527,99 50,99 Z M50,97.0784314 C76.0006997,97.0784314 97.0784314,76.0006997 97.0784314,50 C97.0784314,23.9993003 76.0006997,2.92156863 50,2.92156863 C23.9993003,2.92156863 2.92156863,23.9993003 2.92156863,50 C2.92156863,76.0006997 23.9993003,97.0784314 50,97.0784314 Z M67.8305902,49.4243082 L43.3461043,35.7245569 C43.0634561,35.563697 42.8206366,35.5452414 42.6178722,35.6689623 C42.4151077,35.7926831 42.3137255,36.0155174 42.3137255,36.3372372 L42.3137255,63.6624618 C42.3137255,63.9844095 42.4151077,64.2072438 42.6178722,64.3309647 C42.8206366,64.4546855 43.0634561,64.4364578 43.3461043,64.27537 L67.8305902,50.5756187 C68.1134647,50.4145309 68.254902,50.2222281 68.254902,49.9998495 C68.254902,49.7770152 68.1134647,49.5851681 67.8305902,49.4243082 L67.8305902,49.4243082 Z"/>
</svg>
