<svg xmlns="http://www.w3.org/2000/svg" width="100" height="100" viewBox="0 0 100 100">
	<path fill="#FFF" fill-rule="evenodd" d="M50 99C22.938 99 1 77.062 1 50S22.938 1 50 1s49 21.938 49 49-21.938 49-49 49zm0-1.922c26 0 47.078-21.077 47.078-47.078C97.078 24 76.001 2.922 50 2.922 24 2.922 2.922 23.999 2.922 50c0 26 21.077 47.078 47.078 47.078zm17.83-47.654l-24.484-13.7c-.283-.16-.525-.179-.728-.055-.203.124-.304.347-.304.668v27.325c0 .322.101.545.304.669.203.124.445.105.728-.056l24.485-13.7c.282-.16.424-.353.424-.575 0-.223-.142-.415-.424-.576z"/>
</svg>