<svg xmlns="http://www.w3.org/2000/svg" width="32" height="24" viewBox="0 0 32 24">
  <title>quotes</title>
  <path fill="#000" fill-rule="evenodd" d="M534.8902,304 L539.778349,307.912638 C537.334274,309.113894 534.203697,312.351729 533.36275,315.057026 C533.667777,314.983992 534.357369,314.832599 535.120321,314.832599 C538.404571,314.832599 541,317.31423 541,321.00168 C541,324.839763 537.792973,328 534.050025,328 C529.925601,328 526.184971,324.766729 526.184971,319.27169 C526.184971,313.10413 529.543353,307.760484 534.8902,304 M517.705229,304 L522.593378,307.912638 C520.149304,309.113894 516.942277,312.351729 516.178552,315.057026 C516.483578,314.983992 517.172398,314.832599 517.935351,314.832599 C521.14315,314.832599 523.815802,317.31423 523.815802,321.00168 C523.815802,324.839763 520.608002,328 516.865055,328 C512.742947,328 509,324.766729 509,319.27169 C509,313.10413 512.361471,307.760484 517.705229,304" transform="translate(-509 -304)"/>
</svg>
