<svg xmlns="http://www.w3.org/2000/svg" width="202" height="48" viewBox="0 0 202 48">
  <path fill="#000000" fill-rule="evenodd" d="M82,32 L102.311,32 L102.311,34.97 L93.802,34.97 L93.802,58.771 L90.47,58.771 L90.47,34.97 L82,34.97 L82,32 Z M109,45.848 C109,37.94 114.379,32 122.286,32 C130.192,32 135.613,37.94 135.613,45.848 C135.613,53.756 130.192,59.696 122.286,59.696 C114.379,59.696 109,53.756 109,45.848 Z M132.159,45.848 C132.159,39.586 128.267,34.97 122.286,34.97 C116.265,34.97 112.452,39.586 112.452,45.848 C112.452,52.07 116.265,56.726 122.286,56.726 C128.267,56.726 132.159,52.07 132.159,45.848 Z M151.798,32 L155.932,32 L166.69,58.772 L162.877,58.772 L160.508,52.791 L147.182,52.791 L144.814,58.772 L141,58.772 L151.798,32 Z M153.845,35.41 L148.185,49.86 L159.545,49.86 L153.845,35.41 Z M173,55.44 L175.007,52.871 C176.733,54.878 179.623,56.724 183.394,56.724 C188.173,56.724 189.698,54.155 189.698,52.068 C189.698,45.164 173.843,49.018 173.843,39.464 C173.843,35.051 177.777,32 183.075,32 C187.129,32 190.3,33.405 192.548,35.773 L190.541,38.22 C188.532,35.974 185.722,35.011 182.794,35.011 C179.623,35.011 177.295,36.735 177.295,39.263 C177.295,45.286 193.148,41.832 193.148,51.827 C193.148,55.681 190.501,59.695 183.276,59.695 C178.66,59.695 175.208,57.929 173,55.44 Z M201,32 L221.311,32 L221.311,34.97 L212.801,34.97 L212.801,58.772 L209.47,58.772 L209.47,34.97 L201,34.97 L201,32 Z M43.8005566,22.0083055 C55.1023172,22.0083055 67,27.1120585 67,27.1120585 L67,69.1110866 L20,69.1110866 L20,47.4440149 L31.8997592,47.4440149 L31.8997592,57.258046 L55.1023172,57.258046 L55.1023172,35.480926 C51.736498,34.5579731 47.729076,33.925714 43.5005191,33.8966447 C39.270924,33.925714 35.2645402,34.5579731 31.8997592,35.480926 L31.8758808,35.4861169 L20,27.1120585 C20,27.1120585 31.8758808,22.0083055 43.2015197,22.0083055 L43.2015197,22 C43.3022244,22 43.4008526,22.0031146 43.5005191,22.0031146 C43.6012237,22.0031146 43.699852,22 43.8005566,22 L43.8005566,22.0083055 Z" transform="translate(-20 -22)"/>
</svg>
