<svg width="80" height="137" viewBox="0 0 80 137" xmlns="http://www.w3.org/2000/svg"><title>fingersnap-vectorportal</title><path d="M20.322 30.863c3.167-2.46 5.5-5.794 6.07-8.84.298-.097.786-.272 1.402-.548-.51 3.14.856 7.166 2.644 9.762.12 1.348 1.03 6.496 2.594 9.02l-1.45-.335c-3.045-.707-6.776-1.572-9.663-2.345-.395-.908-.973-2.21-1.66-3.656.165-.265.097-1.738.062-3.057m29.672 24.45c.037.035.07.068.1.1.2.204.16.56.094.82-.102.397-.334.825-.622 1.197.044-.662-.12-1.245-.375-1.57.372-.116.63-.332.804-.547m-5.632-3.29c.234-.148.36-.336.43-.495.034-.082.056-.166.07-.25.51.42 1.253.99 2.3 1.786.813.62 1.645 1.253 2.238 1.737-.093.12-.235.238-.438.304-1.452-.958-3.364-2.233-4.6-3.08m-.54.898c1.492 1.024 3.733 2.508 4.497 3.013-.236.304-.555.59-.875.544-.682-.108-4.24-2.23-4.997-2.7.78-.042 1.18-.5 1.373-.858m-.453-1.594c.16-.388.464-.628.717-.767.113.135.29.303.538.516-.004.12-.024.238-.07.348-.082.19-.227.334-.43.435-.32-.222-.58-.404-.755-.532m.242 1.448c-.16.31-.505.73-1.23.746-.025-.29-.01-.745.118-1.14.03-.094.075-.2.133-.3.21.16.556.403.98.694m-5.46-46.28c.135-.013.27.016.313.028.807.21 1.653 1.286 1.605 3.152-.118 4.506-.046 7.708 2.776 16.385.29.89.545 2.033.842 3.36 1.08 4.824 2.715 12.114 8.458 16.107.65.453 1.943 2.65 2.02 4.737l.015.446.392.214c6.574 3.588 17.11 14.06 15.175 30.63-3.733 3.22-11.92-5.212-17.784-6.385-12.398-3.215-16.245-9.546-15.746-13.596 0 0 7.997 1.466 12.076-1.756.183-.144.337-.3.476-.46 1.02-.364 2.12-1.652 2.432-2.865.188-.735.062-1.377-.354-1.81-.476-.49-1.728-1.444-3.053-2.452-1.012-.77-2.354-1.79-2.79-2.21.334-.56 1.997-1.296 3.583-1.345.186.018.37.037.555.052.297.032.587.08.87.12.28.042.55.103.807.15.26.045.496.115.72.168.22.06.428.1.604.16l.46.142.404.125-.387-.167-.445-.192c-.17-.08-.372-.142-.588-.224-.217-.08-.45-.175-.705-.247-.253-.075-.52-.167-.8-.24-.28-.07-.57-.15-.868-.216-.3-.058-.602-.132-.91-.178-.307-.048-.614-.104-.92-.133l-.453-.053c-.15-.01-.298-.022-.444-.033-.292-.026-.576-.027-.846-.04-.27 0-.525-.006-.762.002l-.233.008c-1.032-1.006-3.164-3.598-4.374-4.794-.52-.514-.97-.893-1.34-1.174.885-.202 1.99-.694 2.61-.99.107-.034.21-.067.305-.102l.54-.216c.162-.06.29-.143.403-.195l.345-.178-.363.136c-.117.04-.252.103-.418.146l-.553.15c-.205.048-.43.083-.665.13-.235.045-.49.063-.747.097-.256.03-.524.038-.793.058-.233-.01-.47-.028-.714-.057-2.678-1.137-6.004-5.327-6.393-7.78 2.024.397 5.138-.586 5.764-.85l.314-.07.48-.153c.077-.024.154-.05.23-.073.075-.028.147-.06.22-.09.142-.062.28-.12.416-.178.135-.056.254-.136.374-.2l.34-.188.28-.208c.09-.064.172-.125.248-.18.077-.056.133-.125.192-.177l.352-.343s-.14.112-.38.31c-.064.045-.124.107-.205.154l-.26.156-.292.176-.347.155c-.12.05-.242.117-.378.16l-.42.134c-.07.022-.143.048-.217.068l-.23.05-.473.104c-.162.02-.328.043-.496.066-.084.01-.168.022-.252.034l-.257.015-.52.03-.522-.005c-.175.003-.35-.01-.523-.023-.173-.014-.345-.02-.516-.04-.34-.047-.675-.08-.993-.15-.322-.053-.625-.13-.912-.205-.02-.005-.04-.013-.063-.02-5.808-5.055-1.01-9.678-1.01-9.678l-.056-.037c2.64-2.06 5.693-5.345 6.33-8.537.757-3.778-.085-5.966-.55-6.82M28.057 9.493c-.023.352-.103.766-.3 1.19-.408.028-.79.006-1.14-.062.363-.313.863-.7 1.44-1.127m6.2-2.63c-.442 1.053-2.428 2.682-4.715 3.45-.41.138-.81.237-1.19.3.208-.567.25-1.098.233-1.505 1.587-1.144 3.558-2.463 4.86-3.333l.898-.602c.014.555.004 1.213-.087 1.69M13.99 8.635l-.01.008c-.286.188-.65.25-.966.262l.04-1.418c.342.13.78.434.936 1.148m.47-.736c-.018.087-.043.168-.073.244-.286-.718-.847-1.065-1.318-1.2l.136-4.82c.34.006.77.03 1.226.1.082 1.116.287 4.377.027 5.676m-2.51 10.78c.07-3.56.134-6.926 1.002-9.182l.026-.067c.404-.008.89-.086 1.288-.347.374-.245.612-.61.707-1.08.265-1.326.08-4.428-.008-5.676.857.2 1.7.587 2.088 1.332 2.318 4.457 1.9 9.59 1.77 10.714l-.133.142-1.015 1.073-.68.717c-.24.255-.476.532-.73.815l-1.58 1.775-1.557 1.762c-.452.516-.886.996-1.272 1.416.047-1.142.072-2.28.094-3.395m-4.512 9.64c1.19-.794 2.485-1.93 4.077-3.577l-.565-.546.558.52 1.378-1.47c.207-.22.43-.46.668-.712.237-.253.476-.534.73-.817l1.578-1.786 1.567-1.762c.25-.28.49-.557.723-.807l.663-.7c.41-.435.753-.797.993-1.05l.276-.294.046-.05c2.385-2.393 4.204-3.685 5.724-4.067l.22-.056.084-.087c.11.032.22.06.333.083 1.115.223 2.308-.03 3.216-.334 2.247-.756 4.51-2.448 5.04-3.775l.015-.046c.12-.607.118-1.463.094-2.095.46.135 1.333.663 1.825 1.625l-.007.004c.588 1.245 1.166 3.893-1.562 7.63-2.884 3.952-6.434 5.816-8.206 6.553-2.11-.217-3.195-.606-3.915-2.256-.096 1.482.85 2.828 2.312 3.637-.753 3.382-3.972 7.253-7.917 9.472-2.03.202-3.752-.58-4.202-.788.252.494 1.638 1.733 3.764 2.034.075.993-.043 1.915-.195 2.624-3.685-.427-5.3-1.406-6.688-.573-1.745 1.045-2.093 3.95-2.42 7.928-.207 2.497-1.5 8.1-2.432 11.924.403-5.263.488-12.322-.602-18.077-1.16-6.122 1.242-7.435 2.395-8.065.163-.09.303-.166.428-.25m34.377 84.9l.01-.16-2.185-6.222-.222-.145c-3.252-2.137-12.6-8.664-16.738-13.132-2.923-3.154-5.07-4.51-8.32-6.563-1.413-.893-3.015-1.905-4.998-3.263-2.537-1.738-3.832-3.26-3.958-4.655l-.037-.21c-.006-.034-.015-.07-.02-.114l-.007-.14c-.006-.1-.015-.214 0-.345l.01-.204c.01-.073.023-.148.034-.225.018-.155.06-.322.1-.494.087-.347.203-.722.34-1.1.14-.383.278-.767.408-1.125.065-.18.124-.36.175-.53.056-.17.09-.34.13-.487.03-.157.06-.294.072-.422.006-.128.02-.238.017-.327l-.02-.28-.048.277c-.018.088-.058.186-.093.3-.04.112-.1.238-.16.372-.074.13-.14.275-.234.42-.087.15-.183.302-.287.46l-.665.993c-.228.342-.447.703-.638 1.06-.09.185-.185.358-.254.54l-.104.252c-.094-.095-.19-.197-.296-.302l-.276-.32c-.093-.113-.176-.235-.27-.358-.09-.125-.164-.26-.252-.396-.073-.14-.15-.283-.217-.434-.13-.302-.23-.628-.29-.972-.05-.344-.064-.706-.036-1.072.065-.734.287-1.476.528-2.17l.02-.06.016-.02-.006-.005c.23-.665.462-1.295.577-1.866.068-.294.09-.574.098-.82-.002-.246-.028-.46-.07-.63l-.06-.226c-.026-.06-.048-.114-.065-.157l-.055-.13.038.136.044.164.033.225c.018.17.017.376-.01.61-.036.232-.09.49-.19.765-.16.482-.425 1.008-.707 1.58-1.26-1.428-.464-3.89.71-6.92.434-1.116.843-2.175 1.002-3.062h.006c.024-.11.048-.228.073-.356 2.634-7.766 3.69-12.026 5.06-20.333.225-1.352.798-3.117 2.267-3.854 1.002-.503 2.31-.482 3.895.053l-.01.014.044.024c.02.008.06.034.114.068.103.07.26.178.425.34.086.076.17.17.26.268.084.105.18.21.26.336.088.12.163.254.24.393.08.135.134.287.205.434.053.153.107.308.154.464.035.158.075.314.104.468l.058.45c.013.144.01.28.017.408.006.128.01.246 0 .35-.008.104-.014.195-.018.27l-.015.236s.02-.083.06-.23c.018-.073.04-.162.068-.264.03-.102.05-.22.07-.35.018-.128.046-.268.062-.418l.03-.477c0-.165-.01-.337-.015-.515-.017-.175-.044-.354-.07-.534-.045-.174-.075-.357-.135-.528-.052-.162-.107-.322-.176-.47.068.032.133.063.2.098 1.042.538 2.087.947 3.165 1.24l-.002.006c2.995.828 7.126 1.786 10.446 2.556 2.5.58 4.66 1.08 5.51 1.335l.195-.648.014.006-.166.55c1.202.36 2.31 1.7 3.595 3.252.856 1.035 1.827 2.208 2.97 3.245.302.275.497.596.54.88-.28.144-.626.387-.866.772-.75-1.04-2.788-2.304-5.31-3.796-.584-.347-1.088-.646-1.38-.84-.935-.624-3.42-.568-6.927-.24-8.502.09-11.3-1.302-14.8.182-4.085 1.732-2.488 4.874-3.053 8.143-.365 2.113-.775 5.45-1.2 8.092-.096.337-.19.673-.283 1.007-.173.61-.332 1.213-.515 1.787l-.508 1.665c-.154.532-.338 1.02-.49 1.48l-.428 1.246-.386.94-.335.82.376-.8c.12-.257.265-.568.433-.923.145-.366.31-.777.49-1.226.175-.45.385-.932.566-1.456l.595-1.64c.213-.567.402-1.163.608-1.764.2-.603.412-1.213.61-1.827.193-.616.388-1.232.58-1.837.194-.606.373-1.205.544-1.786l.496-1.674.42-1.514c.126-.47.253-.9.346-1.28l.244-.988.213-.86-.49-.108.493.1c.754-3.77 3.677-4.058 6-3.99.023.01.05.02.078.03.06.032.14.063.222.116.087.047.177.113.277.186.09.08.2.162.294.27.047.055.1.108.148.167l.137.19c.05.064.084.14.124.212.038.074.087.146.118.226.056.163.142.322.174.5.045.175.094.35.107.532.024.18.05.358.045.533-.003.175.015.346-.003.508-.015.162-.03.315-.04.457-.01.143-.038.27-.058.386-.02.114-.04.213-.055.296l-.048.26.09-.248.107-.286c.04-.11.092-.234.124-.376l.12-.457c.048-.163.06-.342.095-.524.036-.183.04-.375.05-.573.017-.197 0-.4-.018-.603-.005-.206-.067-.406-.102-.608-.022-.1-.062-.196-.093-.293-.033-.098-.06-.196-.11-.284l-.127-.267c-.047-.086-.1-.164-.15-.244-.014-.022-.03-.04-.045-.062.97-.023 2.58-.202 4.4-.405 3.56-.398 8.94-.997 9.958-.32.316.21.83.516 1.428.87 1.476.874 4.925 2.916 5.11 3.703-.342.44-.42 1.09-.438 1.403-.016.28-.023.95.247 1.122.04.026 4.227 2.612 5.23 2.812l.04.007c.75.11 1.335-.657 1.597-1.083.044-.007.085-.017.125-.027.543 1.463-1.492 3.183-3.683 3.49-2.36.333-9.022-.605-12.516-5.108 0 0-.504-1.37-.24-3.586-1.163 1.37-1.22 3.048-1.15 4.13-.5 2.503-7.2 5.48-12.156 2.22.097 1.02 2.568 2.848 5.084 3.84.422 4.787-5.33 11.304-13.51 13.495 7.755-.852 13.574-6.697 13.574-6.697s2.426-.115 1.412 1.06c-1.014 1.178-10.864 10.13-10.114 12.75 2.23-4.418 10.73-10.222 10.73-10.222 1.3-.496 1.902.848 1.902.848.216 4.87-2.976 9.705-5.064 12.58 2.593-1.394 5.926-7.077 6.495-9.12 6.265 1.598 19.167 4.064 25.542 8.23 11.234 8.455 2.266 24.482-9.927 22.043 2.98 2.18 9.88 1.368 14.843-2.978l8.76 26.84c-6.24 3.077-14.372 4.534-19.756 4.46-1.397-5.95-5.025-12.245-6.577-13.9-.95-1.014-1.073-4.86-.928-7.044m36.015 7.484c-.786 3.47-3.7 6.247-7.52 8.358l-6.65-30.264c.533-.925.995-1.927 1.356-3.018 1.012-3.05 2.653-7.925 4.312-9.97-.468 10.045 3.057 18.512 5.715 24.887 1.807 4.337 3.236 7.762 2.787 10.007m-.947-10.776c-2.906-6.972-6.885-16.52-5.2-27.764 1.005-7.94-.525-15.255-4.55-21.742-3.765-6.072-8.456-9.42-11.036-10.925-.29-2.2-1.55-4.726-2.814-5.605-5.106-3.55-6.576-10.114-7.653-14.92-.307-1.37-.573-2.552-.89-3.526-2.726-8.383-2.794-11.294-2.68-15.716.078-2.97-1.498-4.718-3.095-5.134-.412-.107-.83-.124-1.224-.05-.88-1.015-2.1-1.683-3.102-1.683-.077 0-.152.005-.225.013l-.345.04-.273.214c-.11.09-.86.59-1.46.99-2.87 1.92-6.025 4.06-7.296 5.244-1.235.38-2.583 1.187-4.102 2.453-.032-2.53-.467-5.904-2.116-9.074C17.596.38 14.384.125 13.06.125c-.406 0-.676.022-.726.026l-1.07.097-.248 8.732c-.923 2.564-.99 6.012-1.06 9.66-.03 1.474-.064 3.3-.183 5.028-1.34 1.36-2.466 2.34-3.44 2.99-.053.034-.166.096-.28.158-1.443.79-4.825 2.64-3.397 10.186 1.522 8.038.693 19.04-.106 23.348l-.05-.005-.046.42c-.077.688-.49 1.752-.927 2.878-1.13 2.917-2.67 6.884-.026 9.296-.083.258-.15.504-.204.75-.094.454-.136.915-.124 1.378.02.456.095.91.223 1.348.06.2.13.385.196.564l.028.067c.026.056.052.11.076.167.056.123.114.25.185.383.03.052.06.105.087.156.063.114.125.225.196.337l.28.418.154.207c.143.19.28.37.418.522l.144.165c.112.13.218.25.313.343l.02.02c.376 1.87 1.887 3.657 4.742 5.613 2.004 1.372 3.617 2.39 5.04 3.29l.022.014c3.227 2.038 5.175 3.27 7.92 6.232 3.973 4.288 12.63 10.47 16.764 13.217l1.83 5.207c-.086 1.6-.197 6.5 1.478 8.288 1.3 1.387 4.983 7.67 6.216 13.553l.193.926.946.035c.357.012.73.02 1.11.02h.002c5.61 0 12.45-1.383 17.852-3.607 4.822-1.985 10.848-5.58 12.175-11.44.572-2.862-.96-6.534-2.9-11.187" fill="#FFF" fill-rule="evenodd"/></svg>