<svg version="1.2" baseProfile="tiny" xmlns="http://www.w3.org/2000/svg" width="24" height="24" viewBox="0 0 24 24"><path d="M18.89 7.012c.808-.496 1.343-1.173 1.605-2.034a8.66 8.66 0 0 1-2.35.86c-.704-.755-1.594-1.14-2.66-1.14-1.044 0-1.925.367-2.644 1.08a3.56 3.56 0 0 0-1.074 2.604c0 .31.04.585.117.82-3.077-.107-5.623-1.382-7.63-3.84-.34.6-.51 1.214-.51 1.847 0 1.3.55 2.33 1.646 3.09-.627-.055-1.178-.213-1.647-.47 0 .927.273 1.703.82 2.386a3.62 3.62 0 0 0 2.115 1.29c-.313.08-.642.12-.98.12-.312 0-.533-.027-.664-.084.23.757.664 1.37 1.29 1.84a3.652 3.652 0 0 0 2.153.744c-1.333 1.045-2.856 1.562-4.58 1.562-.42 0-.72-.007-.9-.04 1.696 1.103 3.585 1.65 5.675 1.65 2.14 0 4.03-.542 5.674-1.626 1.644-1.078 2.858-2.408 3.638-3.974a10.77 10.77 0 0 0 1.172-4.892V8.34a7.82 7.82 0 0 0 1.84-1.92 8.22 8.22 0 0 1-2.11.592z"/></svg>