<svg xmlns="http://www.w3.org/2000/svg" width="16" height="16" viewBox="0 0 16 16">
  <title>
    home
  </title>
  <g fill="#2962FF" transform="translate(.5 1)">
    <path d="M14.7315698,5.63643293 L7.79162791,0.264536585 C7.46391279,0.0110341463 7.1675407,0.274206848 7.1675407,0.274206848 L0.222889535,5.64893246 C0.222889535,5.64893246 -0.0475988372,5.86445197 0.165659302,6.14764404 L0.931461628,7.16648124 C0.931461628,7.16648124 1.13586279,7.46557026 1.37976977,7.24522508 L1.94595,6.80660008 L7.09269419,2.70363057 C7.09269419,2.70363057 7.38906628,2.44045557 7.7167814,2.6939603 L13.0262581,6.80665543 L13.5767581,7.23284933 C13.5767581,7.23284933 13.8240837,7.45250665 14.0277872,7.18173506 L14.80995,6.14355274 C14.8106313,6.14286187 15.0940605,5.88244665 14.7315977,5.63654787 L14.7315698,5.63643293 Z"/>
    <path d="M7.30848837,3.55656707 L1.96011628,7.8094878 L1.96011628,13.7401646 C1.96011628,13.7401646 1.92605058,14.3784122 2.52289535,14.3452567 L5.71004651,14.3466381 L5.7250357,14.3466381 L5.72639826,9.50876615 C5.72639826,9.2386948 5.94306105,9.01834785 6.21013081,9.01834785 L8.81890988,9.01834785 C9.08529942,9.01834785 9.30196221,9.23800517 9.30196221,9.50876615 L9.29719308,14.3466381 L12.4981233,14.3452567 C12.4981233,14.3452567 13.0404605,14.3832467 13.0404605,13.8161482 L13.0397792,7.8163311 L7.54489552,3.56005061 C7.43656587,3.47647049 7.30983157,3.55590626 7.3084711,3.55659696 L7.30848837,3.55656707 Z"/>
  </g>
</svg>
