<svg xmlns="http://www.w3.org/2000/svg" width="16" height="16" viewBox="0 0 16 16">
  <title>
    page
  </title>
  <path fill="#2962FF" d="M11.708,3.9684375 L8.10769231,0.2965625 C7.98449538,0.171440625 7.81563077,0.1091875 7.64615385,0.1091875 L0.753692308,0.1091875 C0.399723077,0.1091875 0.107661538,0.4058125 0.107661538,0.7653125 L0.107661538,14.2339062 C0.107661538,14.5934062 0.399723077,14.8900312 0.753692308,14.8900312 L11.2458462,14.8900312 C11.5998154,14.8900312 11.8918769,14.5934062 11.8918769,14.2339062 L11.8924778,4.421875 C11.8924778,4.24975 11.8155548,4.0935 11.7079855,3.96839062 L11.708,3.9684375 Z M10.5998308,4.7185625 L7.36906154,4.7185625 L7.36906154,1.422 L7.38468615,1.422 L10.5998308,4.7185625 Z M1.40029231,13.5777812 L1.40029231,1.422 L6.06198462,1.422 L6.06198462,5.35934375 C6.06198462,5.71884375 6.33903077,6.03134375 6.693,6.03134375 L10.6003846,6.03134375 L10.6003846,13.578375 L1.40029231,13.5777812 Z" transform="translate(2 .5)"/>
</svg>
